<?xml version="1.0" encoding="utf-8"?>
<!-- Generator: Adobe Illustrator 23.0.0, SVG Export Plug-In . SVG Version: 6.00 Build 0)  -->
<svg version="1.1" id="Layer_1" xmlns="http://www.w3.org/2000/svg" xmlns:xlink="http://www.w3.org/1999/xlink" x="0px" y="0px"
	 viewBox="0 0 24 24" style="enable-background:new 0 0 24 24;" xml:space="preserve">
<style type="text/css">
	.st0{fill:none;}
	.st1{fill-rule:evenodd;clip-rule:evenodd;fill:#222222;}
</style>
<g>
	<path class="st0" d="M0,0h24v24H0V0z"/>
	<g>
		<path class="st1" d="M7.4,11.9c0.6,0,1.2-0.2,1.7-0.4c0.9,0.7,2,1.1,3.3,1.1c1.1,0,2.1-0.4,2.9-1c0.4,0.2,0.9,0.2,1.3,0.3
			c2.4,0.1,4.5-1.9,4.5-4.3c0-0.1,0-0.1,0-0.2C21.1,4.9,19,3,16.6,3c-0.4,0-0.8,0.1-1.1,0.2c-0.9-0.7-1.9-1.1-3.1-1.1
			c-1.3,0-2.5,0.5-3.5,1.2C8.4,3.2,7.9,3,7.4,3C4.9,3,2.9,4.9,2.9,7.3c0,0.1,0,0.1,0,0.2C2.9,10,4.9,11.9,7.4,11.9z M19.2,7.4
			c0,0,0,0.1,0,0.1c0,1.3-1.1,2.3-2.4,2.4c0.4-0.8,0.7-1.7,0.7-2.7c0-0.8-0.2-1.5-0.6-2.2C18.1,5.1,19.1,6.1,19.2,7.4z M12.3,4.1
			c1.7,0,3.1,1.4,3.2,3.2c0,1.8-1.4,3.3-3.2,3.3C10.5,10.6,9,9.2,9,7.4c0,0,0-0.1,0-0.1C9,5.5,10.5,4.1,12.3,4.1z M4.8,7.4
			C4.9,6,6,5,7.3,5c0.1,0,0.1,0,0.2,0C7.2,5.7,7,6.4,7,7.2c0,0.1,0,0.2,0,0.2c0,0.9,0.3,1.7,0.7,2.4c-0.1,0-0.2,0-0.3,0
			c-1.4,0-2.5-1-2.5-2.4C4.8,7.5,4.8,7.4,4.8,7.4z"/>
		<path class="st1" d="M23.8,17.5c0-2.8-2.7-4.9-7.3-5.2h-0.3c-1.7,0.1-3.1,0.5-4.3,1c-1.2-0.6-2.6-0.9-4.3-1H7.4
			c-4.6,0.4-7.3,2.4-7.3,5.2c0,1,1.3,1.9,3.8,2.3c1,1,3.7,1.6,8,1.6c4.2,0,6.9-0.6,7.9-1.6C22.5,19.4,23.8,18.6,23.8,17.5z
			 M2.1,17.2c0.3-1.3,2-2.6,5.1-2.8c-1.8,0.8-3.1,1.9-3.5,3.3C2.7,17.5,2.1,17.3,2.1,17.2z M20.1,17.7c-0.5-1.4-1.8-2.6-3.6-3.3h0.1
			c3.2,0.1,5,1.5,5.3,2.8C21.9,17.3,21.2,17.5,20.1,17.7z"/>
	</g>
</g>
</svg>
