<?xml version="1.0" encoding="utf-8"?>
<!-- Generator: Adobe Illustrator 23.0.0, SVG Export Plug-In . SVG Version: 6.00 Build 0)  -->
<svg version="1.1" id="Layer_1" xmlns="http://www.w3.org/2000/svg" xmlns:xlink="http://www.w3.org/1999/xlink" x="0px" y="0px"
	 viewBox="0 0 22 19" style="enable-background:new 0 0 22 19;" xml:space="preserve">
<style type="text/css">
	.st0{fill-rule:evenodd;clip-rule:evenodd;fill:#D8D8D8;fill-opacity:0;}
	.st1{fill:#222222;}
</style>
<title>Icon/Home</title>
<desc>Created with Sketch.</desc>
<g id="Icon">
	<g id="Fontastic" transform="translate(-453.000000, -693.000000)">
		<g transform="translate(452.000000, 690.000000)">
			<rect id="Rectangle-Copy-27" y="0" class="st0" width="24" height="24"/>
			<path class="st1" d="M22.2,10.6l-2.5-2c0,0,0,0,0,0l-6.9-5.4c-0.4-0.3-0.9-0.3-1.2,0L4.5,8.6c0,0,0,0,0,0l-2.5,2
				c-0.4,0.3-0.5,1-0.2,1.4c0.3,0.4,1,0.5,1.4,0.2l1-0.8v9.6c0,0.6,0.4,1,1,1h13.8c0.6,0,1-0.4,1-1v-9.6l1,0.8
				c0.4,0.3,1.1,0.3,1.4-0.2S22.6,10.9,22.2,10.6z M17.9,19.9h-3.4v-7.5H9.7v7.5H6.1V9.8L12,5.3l5.9,4.5V19.9z"/>
		</g>
	</g>
</g>
</svg>
