<?xml version="1.0" encoding="utf-8"?>
<!-- Generator: Adobe Illustrator 23.0.0, SVG Export Plug-In . SVG Version: 6.00 Build 0)  -->
<svg version="1.1" id="Layer_1" xmlns="http://www.w3.org/2000/svg" xmlns:xlink="http://www.w3.org/1999/xlink" x="0px" y="0px"
	 viewBox="0 0 20 20" style="enable-background:new 0 0 20 20;" xml:space="preserve">
<style type="text/css">
	.st0{fill-rule:evenodd;clip-rule:evenodd;fill:#D8D8D8;fill-opacity:0;}
	.st1{fill:#222222;}
</style>
<title>Icon/Ke_Provinsi</title>
<desc>Created with Sketch.</desc>
<g id="Icon">
	<g id="Fontastic" transform="translate(-790.000000, -554.000000)">
		<g transform="translate(787.000000, 552.000000)">
			<rect id="Rectangle-Copy-10" class="st0" width="24" height="24"/>
			<g>
				<path class="st1" d="M11.2,18.3c-0.1,0.2-0.1,0.2-0.2,0.3c-0.1,0.1-0.2,0.3-0.3,0.4c-0.1,0.1-0.2,0.2-0.3,0.4
					C6.8,14.7,5,11.4,5,9.4C5,6.4,7.4,4,10.4,4s5.4,2.4,5.4,5.4c0,0.8-0.3,1.9-1,3.2c-0.2,0.5,0,1.1,0.5,1.3c0.5,0.2,1.1,0,1.3-0.5
					c0.8-1.6,1.2-2.9,1.2-4.1c0-4.1-3.3-7.4-7.4-7.4C6.3,2,3,5.3,3,9.4c0,2.7,2.2,6.7,6.6,12.2c0.4,0.5,1.2,0.5,1.6,0
					c0.5-0.7,0.9-1.2,1.1-1.5c0.1-0.1,0.2-0.3,0.3-0.4c0.1-0.2,0.1-0.2,0.2-0.3c0.3-0.4,0.2-1.1-0.2-1.4
					C12.2,17.7,11.5,17.8,11.2,18.3z"/>
				<path class="st1" d="M7.9,9.4c0,1.4,1.2,2.6,2.6,2.6S13,10.8,13,9.4s-1.2-2.6-2.6-2.6S7.9,8,7.9,9.4z"/>
				<path class="st1" d="M22.3,16.6l-4-2.5c-0.3-0.2-0.8,0-0.8,0.4V16h-3c-0.6,0-1,0.4-1,1s0.4,1,1,1h3v1.5c0,0.4,0.4,0.6,0.8,0.4
					l4-2.5C22.6,17.2,22.6,16.8,22.3,16.6z"/>
			</g>
		</g>
	</g>
</g>
</svg>
