<?xml version="1.0" encoding="utf-8"?>
<!-- Generator: Adobe Illustrator 23.0.0, SVG Export Plug-In . SVG Version: 6.00 Build 0)  -->
<svg version="1.1" id="Layer_1" xmlns="http://www.w3.org/2000/svg" xmlns:xlink="http://www.w3.org/1999/xlink" x="0px" y="0px"
	 viewBox="0 0 24 24" style="enable-background:new 0 0 24 24;" xml:space="preserve">
<style type="text/css">
	.st0{fill-rule:evenodd;clip-rule:evenodd;fill:#D8D8D8;fill-opacity:1.000000e-02;}
	.st1{fill-rule:evenodd;clip-rule:evenodd;fill:#222222;}
</style>
<path class="st0" d="M0,0h24v24H0V0z"/>
<g>
	<path class="st1" d="M15,3c0-0.6-0.4-1-1-1H3C2.4,2,2,2.4,2,3v2.5v11V21c0,0.6,0.4,1,1,1h11c0.6,0,1-0.4,1-1v-4.5h4v-11h-4V3z
		 M8,14.5H4v-7h4V14.5z M4,4h9v1.5H8H4V4z M4,20v-3.5h1.6H8h5V20H4z"/>
	<path class="st1" d="M11,17H7c-0.6,0-1,0.4-1,1s0.4,1,1,1h4c0.6,0,1-0.4,1-1S11.6,17,11,17z"/>
	<polygon class="st1" points="16,2 16,4.5 20,4.5 20,14 23,14 23,2 	"/>
</g>
</svg>
