<?xml version="1.0" encoding="UTF-8"?>
<svg width="24px" height="24px" viewBox="0 0 24 24" version="1.1" xmlns="http://www.w3.org/2000/svg" xmlns:xlink="http://www.w3.org/1999/xlink">
    <!-- Generator: Sketch 52.5 (67469) - http://www.bohemiancoding.com/sketch -->
    <title>Icon/Product</title>
    <desc>Created with Sketch.</desc>
    <g id="Icon/Product" stroke="none" stroke-width="1" fill="none" fill-rule="evenodd">
        <g id="Group" transform="translate(1.000000, 2.000000)" fill="#222222" fill-rule="nonzero">
            <path d="M21.3517204,7.75098433 L21.3517204,13.0245914 C21.3517204,13.7878738 20.9528445,14.4956616 20.2999109,14.8909813 L12.6352314,19.5315732 C11.5933606,20.1623755 10.2873826,20.1624338 9.24545549,19.5317245 L1.57893621,14.8909539 C0.925907893,14.4956565 0.526960019,13.7878149 0.526960019,13.0244631 L0.526960019,7.74977701 L0.506193385,7.73782687 C0.0275072254,7.46236724 -0.137240431,6.85101129 0.138219196,6.37232513 C0.226253245,6.21934198 0.353210236,6.09238499 0.506193385,6.00435094 L9.44409792,0.861039829 C10.3704143,0.327991683 11.5103642,0.327991683 12.4366806,0.861039829 L21.3745851,6.00435094 C21.8532713,6.27981057 22.0180189,6.89116652 21.7425593,7.36985268 C21.6545252,7.52283583 21.5275682,7.64979282 21.3745851,7.73782687 L21.3517204,7.75098433 Z M19.1699023,9.00651012 L12.4366806,12.881138 C12.3243128,12.9457999 12.2088014,13.002618 12.0909091,13.0515922 L12.0909091,17.3105787 L19.1699023,13.0245914 L19.1699023,9.00651012 Z M9.90909091,13.0981582 C9.74970084,13.0397957 9.59409843,12.9674557 9.44409792,12.881138 L2.7087782,9.00530281 L2.7087782,13.0244631 L9.90909091,17.3830252 L9.90909091,13.0981582 Z" id="Rectangle-2"></path>
        </g>
    </g>
</svg>