<?xml version="1.0" encoding="UTF-8"?>
<svg width="24px" height="24px" viewBox="0 0 24 24" version="1.1" xmlns="http://www.w3.org/2000/svg" xmlns:xlink="http://www.w3.org/1999/xlink">
    <!-- Generator: Sketch 52.5 (67469) - http://www.bohemiancoding.com/sketch -->
    <title>Icon/Question_black</title>
    <desc>Created with Sketch.</desc>
    <g id="Icon/Question_black" stroke="none" stroke-width="1" fill="none" fill-rule="evenodd">
        <g id="Group-2" transform="translate(0.000000, -1.000000)">
            <rect id="Rectangle-Copy-42" fill-opacity="0" fill="#D8D8D8" x="0" y="0" width="24" height="24"></rect>
            <g id="Group-Copy" transform="translate(3.000000, 3.000000)" fill="#222222">
                <g id="Group" transform="translate(5.700000, 3.000000)">
                    <path d="M3.5007278,9.31004367 C2.98981077,8.87481805 2.78165939,8.34497817 2.78165939,7.75836972 C2.78165939,5.35516739 6.18777293,5.16593886 6.18777293,3.16011645 C6.18777293,2.2139738 5.44978166,1.40029112 3.97379913,1.40029112 C2.5356623,1.40029112 1.64628821,2.00582242 0.946142649,2.95196507 L-2.59348099e-13,1.930131 C0.908296943,0.737991266 2.30858806,2.13162821e-14 4.1062591,2.13162821e-14 C6.41484716,2.13162821e-14 7.81513828,1.30567686 7.81513828,2.93304221 C7.81513828,5.79039301 4.16302766,6.0363901 4.16302766,7.89082969 C4.16302766,8.19359534 4.33333333,8.5720524 4.65502183,8.79912664 L3.5007278,9.31004367 Z" id="?"></path>
                    <path d="M3.89810771,13 C3.33042213,13 2.8573508,12.5269287 2.8573508,11.9592431 C2.8573508,11.3915575 3.33042213,10.9184862 3.89810771,10.9184862 C4.4657933,10.9184862 4.93886463,11.3915575 4.93886463,11.9592431 C4.93886463,12.5269287 4.4657933,13 3.89810771,13 Z" id="Path"></path>
                </g>
                <path d="M9.5,20 C3.70101013,20 -1,15.2989899 -1,9.5 C-1,3.70101013 3.70101013,-1 9.5,-1 C15.2989899,-1 20,3.70101013 20,9.5 C20,15.2989899 15.2989899,20 9.5,20 Z M9.5,18 C14.1944204,18 18,14.1944204 18,9.5 C18,4.80557963 14.1944204,1 9.5,1 C4.80557963,1 1,4.80557963 1,9.5 C1,14.1944204 4.80557963,18 9.5,18 Z" id="Oval" fill-rule="nonzero"></path>
            </g>
        </g>
    </g>
</svg>