<?xml version="1.0" encoding="utf-8"?>
<!-- Generator: Adobe Illustrator 23.0.0, SVG Export Plug-In . SVG Version: 6.00 Build 0)  -->
<svg version="1.1" id="Layer_1" xmlns="http://www.w3.org/2000/svg" xmlns:xlink="http://www.w3.org/1999/xlink" x="0px" y="0px"
	 viewBox="0 0 24 24" style="enable-background:new 0 0 24 24;" xml:space="preserve">
<style type="text/css">
	.st0{fill:none;}
	.st1{fill:#222222;}
</style>
<title>Icon/Reply</title>
<desc>Created with Sketch.</desc>
<g>
	<g id="Backward" transform="translate(12.000000, 12.000000) scale(-1, 1) translate(-12.000000, -12.000000) ">
		<rect id="Rectangle_1486" y="24" class="st0" width="24" height="-24"/>
		<path id="Combined-Shape" class="st1" d="M12,9.5c0.6,0,1.1,0,1.5,0c2.8,0,5,2.2,5,5c0,0.8-0.7,1.5-1.5,1.5
			c-0.8,0-1.5-0.7-1.5-1.5c0-1.1-0.9-2-2-2c-0.4,0-0.9,0-1.5,0v2.3c0,0.2-0.1,0.4-0.2,0.6c-0.3,0.4-1,0.5-1.4,0.2l-5.2-3.8
			c-0.1-0.1-0.2-0.1-0.2-0.2c-0.3-0.4-0.2-1.1,0.2-1.4l5.2-3.8c0.2-0.1,0.4-0.2,0.6-0.2c0.6,0,1,0.4,1,1V9.5z"/>
	</g>
</g>
</svg>
