<?xml version="1.0" encoding="utf-8"?>
<!-- Generator: Adobe Illustrator 23.0.0, SVG Export Plug-In . SVG Version: 6.00 Build 0)  -->
<svg version="1.1" id="Layer_1" xmlns="http://www.w3.org/2000/svg" xmlns:xlink="http://www.w3.org/1999/xlink" x="0px" y="0px"
	 viewBox="0 0 24 24" style="enable-background:new 0 0 24 24;" xml:space="preserve">
<style type="text/css">
	.st0{fill:#222222;}
</style>
<g>
	<path class="st0" d="M17,21v-3c0-2.4-1.7-4.4-4-4.9v-2.2c2.3-0.5,4-2.5,4-4.9V3c0.6,0,1-0.4,1-1c0-0.6-0.4-1-1-1H7C6.5,1,6,1.4,6,2
		c0,0.6,0.4,1,1,1v3c0,2.4,1.7,4.4,4,4.9v2.2c-2.3,0.5-4,2.5-4,4.9v3c-0.6,0-1,0.4-1,1c0,0.6,0.4,1,1,1v0h0h10h0v0c0.5,0,1-0.4,1-1
		C18,21.5,17.6,21,17,21z M15,21H9v-3c0-1.7,1.3-3,3-3c1.7,0,3,1.3,3,3V21z"/>
</g>
</svg>
