<?xml version="1.0" encoding="utf-8"?>
<!-- Generator: Adobe Illustrator 23.0.0, SVG Export Plug-In . SVG Version: 6.00 Build 0)  -->
<svg version="1.1" id="Layer_1" xmlns="http://www.w3.org/2000/svg" xmlns:xlink="http://www.w3.org/1999/xlink" x="0px" y="0px"
	 viewBox="0 0 24 24" style="enable-background:new 0 0 24 24;" xml:space="preserve">
<style type="text/css">
	.st0{fill:none;}
	.st1{fill:#222222;}
</style>
<title>Icon/Swap</title>
<desc>Created with Sketch.</desc>
<g>
	<g id="Group-7" transform="translate(-2.000000, -1.000000)">
		<rect id="Rectangle" x="1" class="st0" width="26" height="26"/>
		<path class="st1" d="M12.8,3.8c-3,0.5-5.4,2.6-6.5,5.3L5.2,6.7C5,6.2,4.4,6,3.9,6.2S3.2,7,3.4,7.6l2.1,4.7c0,0,0,0,0,0
			c0,0,0,0.1,0,0.1c0.2,0.5,0.8,0.7,1.3,0.5l4.7-2.1c0.5-0.2,0.7-0.8,0.5-1.3S11.3,8.8,10.8,9l-2.6,1.2c0.8-2.3,2.7-4,5-4.4
			c3.5-0.6,6.9,2,7.5,5.8c0.1,0.5,0.6,0.9,1.1,0.8c0.5-0.1,0.9-0.6,0.8-1.1C21.8,6.5,17.5,3.1,12.8,3.8z"/>
		<path class="st1" d="M24.8,18.7l-2.1-4.7c-0.2-0.4-0.6-0.6-1.1-0.6c-0.1,0-0.2,0-0.3,0.1c-0.1,0-0.1,0-0.2,0l-4.7,2.1
			c-0.5,0.2-0.7,0.8-0.5,1.3c0.2,0.5,0.8,0.7,1.3,0.5l3-1.3c-0.9,2.2-2.9,3.8-5.4,4.2c-3.8,0.6-7.4-2-8-5.7
			c-0.1-0.5-0.6-0.9-1.1-0.8c-0.5,0.1-0.9,0.6-0.8,1.1c0.8,4.9,5.4,8.2,10.3,7.4c3.1-0.5,5.6-2.5,6.8-5.1l1,2.3
			c0.2,0.5,0.8,0.7,1.3,0.5C24.8,19.8,25.1,19.2,24.8,18.7z"/>
		<circle class="st1" cx="14" cy="13" r="2"/>
	</g>
</g>
</svg>
