<svg xmlns="http://www.w3.org/2000/svg" width="30" height="30" fill="none" viewBox="0 0 30 30">
    <circle cx="15" cy="15" r="15" fill="#4286F5"/>
    <path fill="#fff" d="M11.53 21.865l2.843-1.289 6.231-10.467c.196-.33.08-.747-.286-.953l-1.622-.907c-.403-.226-.922-.091-1.14.274l-6.23 10.468.204 2.874zm8.144-15.361l1.62.907c1.344.752 1.804 2.418 1.029 3.72L15.77 22.14l-6.032 2.733-.453-6.365L15.838 7.5c.775-1.302 2.493-1.749 3.836-.996zm-7.245 10.633l-.938 1.57 3.001 1.681.933-1.574-2.996-1.677zm4.955-8.327l-.934 1.574 2.992 1.676.94-1.571-2.998-1.679z"/>
</svg>
