<svg xmlns="http://www.w3.org/2000/svg" width="252" height="33" fill="none" viewBox="0 0 252 33">
    <path fill="#4286F5" fill-rule="evenodd" d="M25.858.293h7.932l.734.107.734.106c.28.035.524.106.804.177s.524.142.803.213c1.014.354 1.957.85 2.9 1.523.91.638 1.783 1.453 2.621 2.445a9.617 9.617 0 0 1 1.887 3.295c.42 1.24.63 2.622.63 4.11v.496c0 .32-.036.674-.07 1.099-.035.425-.14.886-.245 1.452a9.1 9.1 0 0 1-.455 1.595c-.21.531-.454 1.098-.733 1.665-.42.85-.944 1.63-1.573 2.41-.629.78-1.362 1.488-2.201 2.196-.839.674-1.852 1.205-3.005 1.56-1.153.354-2.446.53-3.914.566h-1.992v-3.366h1.992c0 .036 0 .071.035.071H33.162c1.013 0 1.921-.142 2.725-.46a5.624 5.624 0 0 0 2.131-1.347c.594-.602 1.119-1.204 1.538-1.842.42-.638.769-1.311 1.048-2.02.035-.177.105-.319.14-.496.035-.142.105-.319.14-.496.035-.142.105-.284.14-.46.035-.142.07-.32.104-.497.035-.319.105-.637.14-.92.035-.284.07-.532.07-.78v-.249c0-.035 0-.07.035-.106V12.022c-.035-1.064-.21-2.091-.594-3.083s-.944-1.914-1.677-2.8c-.734-.92-1.678-1.558-2.796-2.019-1.118-.425-2.48-.673-4.018-.673l-2.551-.071v21.897h-3.879V.293zM49.445 3.589c-.175.141-.28.248-.35.425-.07.141-.105.319-.105.46v.036c0 .212.035.425.105.602.07.177.21.354.35.46.14.107.314.213.489.249.175.035.35.035.524.035.175 0 .35-.035.49-.07.14-.036.314-.142.454-.249a.967.967 0 0 0 .314-.425c.07-.142.105-.354.105-.567 0-.212-.035-.39-.105-.567a1.038 1.038 0 0 0-.35-.425c-.14-.106-.314-.212-.454-.248-.174-.035-.35-.07-.524-.07-.174 0-.314.035-.489.106-.175.07-.315.141-.454.248zm2.376 22.003h-2.83V8.797h2.83v16.795zM97.806 10.498c-.873.744-1.502 1.63-1.956 2.657-.455 1.028-.664 2.162-.77 3.508v.07c0 1.24.175 2.375.525 3.438a8.783 8.783 0 0 0 1.607 2.905c.7.886 1.643 1.524 2.796 1.949 1.153.425 2.516.638 4.088.638a9.126 9.126 0 0 0 3.04-.496 6.032 6.032 0 0 0 2.341-1.489c.664-.673 1.223-1.381 1.643-2.125a9.87 9.87 0 0 0 .943-2.374c.07-.213.105-.39.14-.567.017-.101.025-.194.034-.283.009-.098.018-.191.036-.284 0-.053.009-.098.017-.142.009-.044.018-.088.018-.142v-.283c.035-.071.035-.142.035-.248v-.284c0-1.417-.21-2.622-.594-3.65a6.642 6.642 0 0 0-1.747-2.586c-.769-.637-1.608-1.204-2.446-1.594A9.663 9.663 0 0 0 104.9 8.3h-.14c-.035 0-.105 0-.14-.035h-.489c-.035 0-.105 0-.14-.036h-.279c-1.083 0-2.132.177-3.11.567-.979.354-1.922.957-2.796 1.7zm.734 7.05c-.035-.141-.035-.318-.035-.46h.035v-.992c0-.106 0-.177.035-.283.018-.054.026-.098.035-.142.009-.044.018-.089.035-.142.07-.531.245-1.063.49-1.559.244-.496.558-.992.943-1.417.384-.46.908-.815 1.502-1.028.594-.212 1.328-.319 2.167-.319.873 0 1.642.142 2.341.39.664.248 1.258.602 1.712 1.098a5.103 5.103 0 0 1 1.048 1.737c.245.673.35 1.382.35 2.197 0 1.169-.105 2.16-.384 2.94-.245.78-.664 1.382-1.189 1.807a6.093 6.093 0 0 1-1.782.922 6.829 6.829 0 0 1-2.096.319c-.804 0-1.468-.107-2.062-.32a3.556 3.556 0 0 1-1.468-.956 6.047 6.047 0 0 1-.943-1.382c-.245-.496-.454-.992-.56-1.488 0-.142-.034-.319-.069-.46-.035-.142-.07-.284-.105-.461zM60.138 29.277c.28.07.524.142.768.212.245.036.49.107.734.142.245.07.49.106.734.106h.21c.07 0 .14 0 .244.036h.63c.07 0 .139 0 .209.035h.42c.803 0 1.537-.106 2.166-.319A5.262 5.262 0 0 0 68 28.533c.524-.425.908-.886 1.153-1.453.28-.531.42-1.134.42-1.807V25.06c-.036-.035-.036-.035-.036-.07v-7.37a7.56 7.56 0 0 0-.384-2.41A5.38 5.38 0 0 0 68 13.297a4.81 4.81 0 0 0-1.608-1.24 4.289 4.289 0 0 0-1.852-.425h-.14c-.034.035-.07.035-.104.035h-.489a4.83 4.83 0 0 0-1.713.531c-.559.248-1.083.638-1.572 1.099-.49.46-.839 1.063-1.083 1.771-.245.745-.385 1.595-.385 2.587 0 .638.105 1.24.385 1.807a5.748 5.748 0 0 0 1.083 1.63 4.88 4.88 0 0 0 1.782 1.098c.664.248 1.433.39 2.271.39h.525c.174 0 .314 0 .489-.035.174-.036.35-.036.524-.071.175-.036.314-.071.49-.142.139-.035.314-.106.488-.142.175-.07.315-.141.49-.212.174-.071.349-.177.524-.284.174-.106.314-.248.489-.354v3.047c-.28.213-.56.39-.874.496-.314.107-.629.213-.978.32-.35.07-.699.105-1.083.176-.385.036-.839.071-1.258.071-1.433-.07-2.691-.319-3.74-.744-1.048-.425-1.886-1.027-2.55-1.807-.63-.78-1.083-1.665-1.433-2.622a9.815 9.815 0 0 1-.489-3.083c0-1.098.14-2.09.42-2.94.279-.886.698-1.63 1.257-2.233a11.782 11.782 0 0 1 1.747-1.559 7.097 7.097 0 0 1 1.922-.992c.28-.106.524-.212.804-.248.28-.07.524-.106.804-.177.28-.035.524-.07.768-.106.245-.036.49-.036.7-.036 1.048 0 2.061.177 3.004.532a8.581 8.581 0 0 1 2.656 1.594 6.552 6.552 0 0 1 1.887 2.41c.42.92.63 1.913.63 3.011v8.433c0 .142 0 .32-.036.567-.035.248-.07.567-.14.921a6.85 6.85 0 0 1-.314 1.134c-.14.39-.315.78-.524 1.205-.28.496-.63.992-1.049 1.453-.419.46-.943.885-1.537 1.31-.594.426-1.328.745-2.167.957-.838.213-1.782.32-2.9.32-.629 0-1.188-.036-1.747-.072-.524-.035-1.013-.106-1.468-.248-.21-.035-.419-.106-.629-.142-.21-.07-.384-.106-.559-.141-.175-.071-.35-.142-.489-.177-.14-.071-.315-.107-.42-.142-.034-.036-.034-.036-.07-.036H58.636l-.035-.035.804-2.622c.174 0 .454.07.734.142zM76.945 24.919v.637h2.83V8.797h-2.83v16.122zM90.888 8.868c-.385 0-.734.035-1.049.106-.314.071-.629.177-.908.319a6.83 6.83 0 0 0-.734.425 4.04 4.04 0 0 0-.594.496l-.21.213c-.07.07-.105.142-.174.212a.62.62 0 0 0-.14.178l-.105.106v-1.56h-2.9V25.557h2.865V17.372c0-.213 0-.426.035-.674 0-.248.035-.496.07-.744s.105-.531.21-.815c.104-.354.244-.744.454-1.098.175-.354.42-.709.699-1.028a4.35 4.35 0 0 1 1.118-.815c.454-.212.978-.39 1.607-.496h.804v-2.87l-1.048.036zM77.05 4.014c.07-.177.175-.284.35-.425.14-.107.28-.178.454-.248.175-.071.314-.107.489-.107s.35.036.524.071c.14.036.315.142.454.248.14.106.28.248.35.425.07.177.105.355.105.567 0 .213-.035.425-.105.567a.966.966 0 0 1-.315.425c-.14.107-.314.213-.454.248-.14.036-.314.071-.49.071-.174 0-.349 0-.523-.035a1.284 1.284 0 0 1-.49-.248 1.15 1.15 0 0 1-.349-.46 1.678 1.678 0 0 1-.105-.603v-.036c0-.141.035-.319.105-.46zM122.372 25.556h2.83V8.832h-2.83v16.724zM129.43 15.706c0-.886.175-1.771.489-2.55.315-.816.804-1.56 1.433-2.269.664-.673 1.433-1.204 2.306-1.523.874-.354 1.887-.532 3.04-.532.175 0 .385 0 .594.036.21.035.455.07.699.106.245.036.49.106.769.177.245.071.524.142.804.284.489.212.943.46 1.363.78.419.318.838.708 1.257 1.133.42.425.734.957.909 1.595.21.637.315 1.346.315 2.16V25.522h-3.25v-9.567c0-.496-.07-.992-.21-1.488-.14-.496-.384-.957-.664-1.382-.279-.46-.699-.78-1.153-1.027a4.215 4.215 0 0 0-1.712-.355c-.629 0-1.153.107-1.608.32a3.405 3.405 0 0 0-1.223.92c-.349.39-.594.85-.803 1.312-.21.46-.315.956-.385 1.488v9.779h-2.97v-9.815zM122.476 3.978c.07-.177.175-.283.35-.425.14-.106.279-.177.454-.248.175-.07.315-.106.489-.106.175 0 .35.035.524.07.14.036.315.142.455.249.14.106.279.248.349.425.07.177.105.354.105.567 0 .212-.035.425-.105.567a.972.972 0 0 1-.314.425c-.14.106-.315.212-.455.248-.139.035-.314.07-.489.07s-.349 0-.524-.035c-.175-.035-.349-.141-.489-.248a1.15 1.15 0 0 1-.35-.46 1.695 1.695 0 0 1-.104-.603V4.44c0-.106.035-.284.104-.46zM115.348 23.643c.07-.177.175-.283.349-.425.14-.107.28-.177.455-.248.174-.071.314-.107.489-.107s.349.036.524.071c.14.036.315.142.454.248.14.107.28.248.35.426.07.177.105.354.105.566 0 .213-.035.426-.105.567a.966.966 0 0 1-.315.426c-.14.106-.314.212-.454.248a2.03 2.03 0 0 1-.489.07c-.175 0-.35 0-.524-.035a1.288 1.288 0 0 1-.49-.248 1.156 1.156 0 0 1-.349-.46 1.673 1.673 0 0 1-.105-.603v-.035c.035-.142.07-.32.105-.461z" clip-rule="evenodd"/>
    <path fill="url(#a)" fill-rule="evenodd" d="M17.996.329l-9.68 7.05v18.107l9.68-7.725V.33zM0 12.269v9.921l6.115 3.295v-9.85L0 12.27z" clip-rule="evenodd"/>
    <path fill="#4286F5" d="M170.751 25h-1.804l10.032-15.576h1.54L183.753 25h-1.65l-.836-4.092h-7.964L170.751 25zm3.454-5.544h6.82l-1.628-8.272-5.192 8.272zm16.791-10.032h4.708c.88 0 1.753.125 2.618.374a6.662 6.662 0 0 1 2.332 1.144c.689.513 1.247 1.188 1.672 2.024.425.821.638 1.811.638 2.97 0 1.364-.242 2.603-.726 3.718a8.195 8.195 0 0 1-1.98 2.86 9.12 9.12 0 0 1-3.014 1.848c-1.159.425-2.42.638-3.784.638h-5.214l2.75-15.576zm-.946 14.19h3.52c1.261 0 2.369-.213 3.322-.638.968-.425 1.775-.983 2.42-1.672a6.898 6.898 0 0 0 1.474-2.398 7.98 7.98 0 0 0 .506-2.794c0-.719-.117-1.4-.352-2.046a4.586 4.586 0 0 0-1.078-1.694c-.484-.484-1.1-.865-1.848-1.144-.748-.279-1.635-.418-2.662-.418h-3.036l-2.266 12.804zm24.92-1.298h.022l7.546-12.892h2.398L222.186 25h-1.562L223 11.536h-.044L214.948 25h-.836l-3.256-13.464h-.044L208.436 25h-1.54l2.75-15.576h2.376l2.948 12.892zM229.945 25h-1.562l2.75-15.576h1.562L229.945 25zm17.285-2.222h.044l2.354-13.354h1.562L248.44 25h-1.958l-6.38-13.53h-.044L237.682 25h-1.562l2.75-15.576h1.958l6.402 13.354z"/>
    <path stroke="#4286F5" stroke-width="2" d="M156.069 0v33"/>
    <defs>
        <linearGradient id="a" x1="5.995" x2="-8.778" y1="-8.059" y2="13.085" gradientUnits="userSpaceOnUse">
            <stop stop-color="#A677FB"/>
            <stop offset="1" stop-color="#4286F5"/>
        </linearGradient>
    </defs>
</svg>
